<?xml version="1.0" standalone="no"?><!DOCTYPE svg PUBLIC "-//W3C//DTD SVG 1.1//EN" "http://www.w3.org/Graphics/SVG/1.1/DTD/svg11.dtd"><svg t="1586160562619" class="icon" viewBox="0 0 1024 1024" version="1.1" xmlns="http://www.w3.org/2000/svg" p-id="2242" xmlns:xlink="http://www.w3.org/1999/xlink" width="200" height="200"><defs><style type="text/css"></style></defs><path d="M216.615385 464.738462m-98.461539 0a98.461538 98.461538 0 1 0 196.923077 0 98.461538 98.461538 0 1 0-196.923077 0Z" fill="#BFBFBF" p-id="2243"></path><path d="M485.218462 705.772308m-59.076924 0a59.076923 59.076923 0 1 0 118.153847 0 59.076923 59.076923 0 1 0-118.153847 0Z" fill="#BFBFBF" p-id="2244"></path><path d="M787.692308 386.756923c32.295385 0 59.076923 26.781538 59.076923 59.076923 0-32.295385 26.781538-59.076923 59.076923-59.076923-32.295385 0-59.076923-26.781538-59.076923-59.076923 0 32.295385-25.993846 59.076923-59.076923 59.076923z" fill="#7F7F7F" p-id="2245"></path><path d="M846.769231 461.587692c-8.664615 0-15.753846-7.089231-15.753846-15.753846 0-23.630769-19.692308-43.323077-43.323077-43.323077-8.664615 0-15.753846-7.089231-15.753846-15.753846s7.089231-15.753846 15.753846-15.753846c23.630769 0 43.323077-19.692308 43.323077-43.323077 0-8.664615 7.089231-15.753846 15.753846-15.753846s15.753846 7.089231 15.753846 15.753846c0 23.630769 19.692308 43.323077 43.323077 43.323077 8.664615 0 15.753846 7.089231 15.753846 15.753846s-7.089231 15.753846-15.753846 15.753846c-23.630769 0-43.323077 19.692308-43.323077 43.323077 0 8.664615-7.089231 15.753846-15.753846 15.753846z m-13.390769-74.830769c4.726154 3.938462 9.452308 7.876923 13.390769 13.390769 3.938462-4.726154 7.876923-9.452308 13.390769-13.390769-4.726154-3.938462-9.452308-7.876923-13.390769-13.390769-3.938462 4.726154-7.876923 9.452308-13.390769 13.390769zM567.138462 236.307692c65.378462 0 118.153846 52.775385 118.153846 118.153846 0-65.378462 52.775385-118.153846 118.153846-118.153846-65.378462 0-118.153846-52.775385-118.153846-118.153846 0 65.378462-52.775385 118.153846-118.153846 118.153846z" fill="#7F7F7F" p-id="2246"></path><path d="M685.292308 370.215385c-8.664615 0-15.753846-7.089231-15.753846-15.753847 0-56.713846-45.686154-102.4-102.4-102.4-8.664615 0-15.753846-7.089231-15.753847-15.753846s7.089231-15.753846 15.753847-15.753846c56.713846 0 102.4-45.686154 102.4-102.4 0-8.664615 7.089231-15.753846 15.753846-15.753846s15.753846 7.089231 15.753846 15.753846c0 56.713846 45.686154 102.4 102.4 102.4 8.664615 0 15.753846 7.089231 15.753846 15.753846s-7.089231 15.753846-15.753846 15.753846c-56.713846 0-102.4 45.686154-102.4 102.4 0 8.664615-7.089231 15.753846-15.753846 15.753847z m-55.138462-133.907693c23.630769 12.603077 42.535385 31.507692 55.138462 55.138462 12.603077-23.630769 31.507692-42.535385 55.138461-55.138462-23.630769-12.603077-42.535385-31.507692-55.138461-55.138461-12.603077 23.630769-31.507692 42.535385-55.138462 55.138461z" fill="#7F7F7F" p-id="2247"></path><path d="M512 937.353846c-234.732308 0-425.353846-190.621538-425.353846-425.353846 0-233.944615 189.833846-424.566154 423.778461-425.353846 11.027692 0 21.267692 6.301538 26.781539 15.753846 5.513846 9.452308 5.513846 21.267692 0 31.507692-22.055385 39.384615-33.870769 83.495385-33.870769 129.181539 0 145.723077 118.153846 263.876923 263.876923 263.876923 43.323077 0 84.283077-10.24 122.88-30.72 10.24-5.513846 22.055385-4.726154 31.507692 0.787692 9.452308 6.301538 14.966154 16.541538 14.966154 27.569231-3.150769 111.064615-48.836923 214.252308-128.393846 292.233846C728.615385 894.818462 623.852308 937.353846 512 937.353846z m-51.987692-783.753846C285.144615 178.806154 149.661538 330.043077 149.661538 512c0 200.073846 162.264615 362.338462 362.338462 362.338462 179.593846 0 328.467692-128.393846 356.824615-300.898462-32.295385 10.24-66.953846 15.753846-100.824615 15.753846C587.618462 589.193846 441.107692 442.683077 441.107692 262.301538c0-37.021538 6.301538-74.043077 18.904616-108.701538z" fill="#7F7F7F" p-id="2248"></path></svg>
