<svg t="1586162872066" class="icon" viewBox="0 0 1024 1024" version="1.1" xmlns="http://www.w3.org/2000/svg" p-id="4212" width="200" height="200"><path d="M512 512m-236.307692 0a236.307692 236.307692 0 1 0 472.615384 0 236.307692 236.307692 0 1 0-472.615384 0Z" fill="#BFBFBF" p-id="4213"></path><path d="M512 779.815385c-147.298462 0-267.815385-120.516923-267.815385-267.815385s120.516923-267.815385 267.815385-267.815385 267.815385 120.516923 267.815385 267.815385-120.516923 267.815385-267.815385 267.815385z m0-472.615385c-112.64 0-204.8 92.16-204.8 204.8s92.16 204.8 204.8 204.8 204.8-92.16 204.8-204.8-92.16-204.8-204.8-204.8zM261.513846 293.021538c-7.876923 0-15.753846-3.150769-22.055384-9.452307l-27.569231-27.569231c-12.603077-12.603077-12.603077-32.295385 0-44.898462 12.603077-12.603077 32.295385-12.603077 44.898461 0l27.569231 27.569231c12.603077 12.603077 12.603077 32.295385 0 44.898462-7.089231 6.301538-14.966154 9.452308-22.843077 9.452307zM157.538462 543.507692h-39.384616c-17.329231 0-31.507692-14.178462-31.507692-31.507692s14.178462-31.507692 31.507692-31.507692h39.384616c17.329231 0 31.507692 14.178462 31.507692 31.507692s-14.178462 31.507692-31.507692 31.507692zM233.156923 822.350769c-7.876923 0-15.753846-3.150769-22.055385-9.452307-12.603077-12.603077-12.603077-32.295385 0-44.898462l27.569231-27.569231c12.603077-12.603077 32.295385-12.603077 44.898462 0 12.603077 12.603077 12.603077 32.295385 0 44.898462l-27.569231 27.569231c-6.301538 6.301538-14.178462 9.452308-22.843077 9.452307zM512 937.353846c-17.329231 0-31.507692-14.178462-31.507692-31.507692v-39.384616c0-17.329231 14.178462-31.507692 31.507692-31.507692s31.507692 14.178462 31.507692 31.507692v39.384616c0 17.329231-14.178462 31.507692-31.507692 31.507692zM790.843077 822.350769c-7.876923 0-15.753846-3.150769-22.055385-9.452307L740.430769 784.541538c-12.603077-12.603077-12.603077-32.295385 0-44.898461 12.603077-12.603077 32.295385-12.603077 44.898462 0l27.569231 27.569231c12.603077 12.603077 12.603077 32.295385 0 44.898461-6.301538 7.089231-14.178462 10.24-22.055385 10.24zM905.846154 543.507692h-39.384616c-17.329231 0-31.507692-14.178462-31.507692-31.507692s14.178462-31.507692 31.507692-31.507692h39.384616c17.329231 0 31.507692 14.178462 31.507692 31.507692s-14.178462 31.507692-31.507692 31.507692zM762.486154 293.021538c-7.876923 0-15.753846-3.150769-22.055385-9.452307-12.603077-12.603077-12.603077-32.295385 0-44.898462l27.569231-27.569231c12.603077-12.603077 32.295385-12.603077 44.898462 0 12.603077 12.603077 12.603077 32.295385 0 44.898462L784.541538 283.569231c-5.513846 6.301538-14.178462 9.452308-22.055384 9.452307z" fill="#7F7F7F" p-id="4214"></path><path d="M512 189.046154c-17.329231 0-31.507692-14.178462-31.507692-31.507692v-39.384616c0-17.329231 14.178462-31.507692 31.507692-31.507692s31.507692 14.178462 31.507692 31.507692v39.384616c0 17.329231-14.178462 31.507692-31.507692 31.507692z" fill="#7F7F7F" p-id="4215"></path></svg>
